<svg xmlns="http://www.w3.org/2000/svg" width="2719" height="600" viewBox="0 0 2719 600">
  <path fill="#FF4747" fill-rule="evenodd" d="M2588.81131,299.210239 C2588.81131,286.286794 2602.60999,279.396587 2617.69758,279.396587 C2643.13527,279.396587 2662.10253,294.042584 2665.54681,316.435758 L2715.55572,316.435758 C2710.81821,270.35319 2671.58185,238.055343 2618.55542,238.055343 C2571.56834,238.055343 2535.35811,262.601707 2535.35811,303.94295 C2535.35811,350.025518 2579.33199,362.083381 2615.97329,371.561723 C2642.2645,378.447623 2664.68897,384.050223 2664.68897,399.55319 C2664.68897,412.041691 2650.45922,420.65445 2630.62981,420.65445 C2603.8989,420.65445 2583.64273,405.582121 2580.6209,383.188947 L2530.6163,383.188947 C2535.35811,429.267209 2575.87908,462 2630.62981,462 C2680.20333,462 2719,435.726778 2719,394.381228 C2719,349.59488 2675.03475,337.537018 2638.38483,328.062982 C2611.66254,321.168469 2588.81131,315.143844 2588.81131,299.210239 Z M2316.43281,242.788054 L2261.68209,242.788054 L2261.68209,457.69362 L2316.43281,457.69362 L2316.43281,343.996587 C2316.43281,314.708899 2342.29726,284.133604 2386.27544,291.023812 L2386.27544,238.916619 C2353.07411,235.036571 2329.36504,253.554003 2316.43281,281.549777 L2316.43281,242.788054 Z M2133.07113,347.441691 L2091.25263,259.587241 L2050.73166,347.441691 L2133.07113,347.441691 Z M2093.408,143.30638 L2248.6033,457.69362 L2185.67079,457.69362 L2155.05591,393.519952 L2029.17795,393.519952 L1999.42953,457.69362 L1938.217,457.69362 L2093.408,143.30638 Z M1793.82011,327.201707 L1849.43298,327.201707 C1839.09151,275.090207 1794.25118,238.481675 1740.79368,238.481675 C1678.71901,238.481675 1628.27902,285.425518 1628.27902,350.456156 C1628.27902,415.056156 1678.71901,462 1740.79368,462 C1794.25118,462 1839.09151,427.114019 1849.43298,375.00252 L1793.82011,375.00252 C1785.19862,398.261276 1764.94245,412.902966 1740.79368,412.902966 C1708.46312,412.902966 1682.59867,387.495327 1682.59867,351.317432 C1682.59867,314.282568 1708.46312,289.30126 1740.79368,289.30126 C1764.94245,289.30126 1785.19862,303.94295 1793.82011,327.201707 Z M1549.27607,457.69362 L1604.01817,457.69362 L1604.01817,242.792361 L1549.27607,242.792361 L1549.27607,457.69362 Z M1541.51242,180.776188 C1541.51242,200.154896 1557.46648,216.088501 1576.43374,216.088501 C1595.83207,216.088501 1611.78182,200.154896 1611.78182,180.776188 C1611.78182,161.39748 1595.83207,145.459569 1576.43374,145.459569 C1557.46648,145.459569 1541.51242,161.39748 1541.51242,180.776188 Z M1374.38499,269.487607 L1374.38499,242.788054 L1319.63427,242.788054 L1319.63427,457.69362 L1374.38499,457.69362 L1374.38499,327.628038 C1374.38499,302.655343 1393.78332,282.841691 1419.22101,282.841691 C1445.51222,282.841691 1464.05272,301.789761 1464.05272,329.781228 L1464.05272,457.69362 L1518.80344,457.69362 L1518.80344,325.474848 C1518.80344,275.090207 1489.91716,238.055343 1438.61934,238.055343 C1411.02629,238.055343 1387.31721,250.108899 1374.38499,269.487607 Z M1181.33707,288.870622 C1148.14436,288.870622 1121.84453,313.847623 1121.84453,350.886794 C1121.84453,387.060383 1148.14436,412.472329 1181.33707,412.472329 C1214.53408,412.472329 1240.8253,387.060383 1240.8253,350.886794 C1240.8253,313.847623 1214.53408,288.870622 1181.33707,288.870622 Z M1181.33707,462 C1118.39162,462 1067.52919,415.056156 1067.52919,350.456156 C1067.52919,285.425518 1118.39162,238.481675 1181.33707,238.481675 C1244.2782,238.481675 1295.14926,285.425518 1295.14926,350.456156 C1295.14926,415.056156 1244.2782,462 1181.33707,462 Z M995.802767,242.788054 L941.047732,242.788054 L941.047732,457.69362 L995.802767,457.69362 L995.802767,343.996587 C995.802767,314.708899 1021.66721,284.133604 1065.64108,291.023812 L1065.64108,238.916619 C1032.44407,235.036571 1008.73499,253.554003 995.802767,281.549777 L995.802767,242.788054 Z M2458.88126,179.914912 L2404.99699,197.140431 L2404.99699,402.137018 C2404.99699,435.29614 2428.2793,457.69362 2467.93381,457.69362 L2521.39562,457.69362 L2521.39562,409.027225 L2483.4611,409.027225 C2466.6449,409.027225 2458.88126,401.275742 2458.88126,387.060383 L2458.88126,289.30126 L2521.39562,289.30126 L2521.39562,242.788054 L2458.88126,242.788054 L2458.88126,179.914912 Z M857.656444,179.914912 L803.772179,197.140431 L803.772179,402.137018 C803.772179,435.29614 827.050182,457.69362 866.70469,457.69362 L920.170813,457.69362 L920.170813,409.027225 L882.231979,409.027225 C865.420089,409.027225 857.656444,401.275742 857.656444,387.060383 L857.656444,289.30126 L920.170813,289.30126 L920.170813,242.788054 L857.656444,242.788054 L857.656444,179.914912 Z M730.601658,327.201707 L786.21022,327.201707 C775.864441,275.090207 731.032732,238.481675 677.575231,238.481675 C615.500558,238.481675 565.060576,285.425518 565.060576,350.456156 C565.060576,415.056156 615.500558,462 677.575231,462 C731.032732,462 775.864441,427.114019 786.21022,375.00252 L730.601658,375.00252 C721.980176,398.261276 701.715382,412.902966 677.575231,412.902966 C645.244672,412.902966 619.380225,387.495327 619.380225,351.317432 C619.380225,314.282568 645.244672,289.30126 677.575231,289.30126 C701.715382,289.30126 721.980176,303.94295 730.601658,327.201707 Z M487.139618,328.924258 C482.397803,303.516619 459.977638,285.856156 434.539954,285.856156 C409.106581,285.856156 387.983949,302.655343 380.655689,328.924258 L487.139618,328.924258 Z M546.201083,368.112313 L380.228926,368.112313 C387.552875,395.24681 411.693026,413.333604 441.006066,413.333604 C457.822267,413.333604 473.336625,406.874035 482.397803,393.519952 L543.179253,393.519952 C526.802748,434.865502 487.997455,462 440.148228,462 C375.478489,462 322.891757,414.625518 322.891757,350.025518 C322.891757,284.99488 372.896355,238.055343 434.539954,238.055343 C487.997455,238.055343 546.627846,277.243397 546.627846,359.930191 C546.627846,362.514019 546.201083,365.102153 546.201083,368.112313 Z M243.897425,457.69362 L298.648149,457.69362 L298.648149,139 L243.897425,156.229825 L243.897425,457.69362 Z M0,156.229825 L219.007206,156.229825 L219.007206,209.198293 L60.358998,209.198293 L60.358998,279.827225 L188.823396,279.827225 L188.823396,331.934418 L60.358998,331.934418 L60.358998,405.582121 L219.007206,405.582121 L219.007206,457.69362 L0,457.69362 L0,156.229825 Z"/>
</svg>
